# xmcd CD database file
#
# Track frame offsets:
#	150
#	22626
#	37606
#	54515
#	63003
#	71689
#	97558
#	126561
#	157475
#	179346
#	206929
#
# Disc length: 2985 seconds
#
# Revision: 0
# Processed by: cddbd v1.5.2PL0 Copyright (c) Steve Scherf et al.
# Submitted via: CDex 1.70beta2
#
DISCID=8e0ba70b
DTITLE=Steve Amirault - One Existence
DYEAR=2012
DGENRE=Jazz
TTITLE0=Je vois Clemente danser
TTITLE1=Hold On, Let Go
TTITLE2=Perfect World 
TTITLE3=Heroes Bass Solo
TTITLE4=Heroes Drum solo
TTITLE5=Heroes
TTITLE6=Live To Love
TTITLE7=One Existence
TTITLE8=Poemes des Acadiens
TTITLE9=Now That You're Here
TTITLE10=Faith 
EXTD=YEAR: 2012
EXTT0=
EXTT1=
EXTT2=
EXTT3=
EXTT4=
EXTT5=
EXTT6=
EXTT7=
EXTT8=
EXTT9=
EXTT10=
PLAYORDER=
